<?xml version="1.0" encoding="utf-8"?>
<svg version="1.1" id="Логотип" xmlns="http://www.w3.org/2000/svg" xmlns:xlink="http://www.w3.org/1999/xlink" x="0px"
	 y="0px" viewBox="0 0 139.2 94.7" style="enable-background:new 0 0 139.2 94.7;" xml:space="preserve">
<style type="text/css">
	.st0{fill:#50B7C7;} /*blue*/
	.st1{fill:#F8A858;} /*orange*/
	.st2{fill:#F8A623;}
	.st3{opacity:0.9;fill:#A7CA3B;}
	.st4{fill:#EC5252;fill-opacity:0.94;}
	.st5{opacity:0.9;fill:#FEC900;}
	.st6{fill:#FBB820;fill-opacity:0.85;}
	.st7{fill:#FEC900;}
	.st8{fill:#EC5252;}
	.st9{fill:#363F3F;}
</style>
<g>
	<path class="st0" d="M81.5,25.3h11.8c5.2,0,7.8,2.3,7.8,6.9c0,4-2.8,6.8-8.4,8.4l5,6.9c3.6-3.6,5.9-8.6,5.9-14.1
		c0-11-8.9-19.9-19.9-19.9c-11,0-19.9,8.9-19.9,19.9c0,10.2,7.7,18.7,17.7,19.8V25.3z"/>
	<path class="st0" d="M89.9,40.7v-1.4c5.9-0.9,8.8-3.2,8.8-6.9c0-3.4-1.9-5.2-5.8-5.2h-9.4v26.1c0,0,0.1,0,0.1,0
		c4.6,0,8.9-1.6,12.3-4.2L89.9,40.7z"/>
</g>
<circle class="st1" cx="46.1" cy="32.9" r="10.4"/>
<ellipse transform="matrix(0.7071 -0.7071 0.7071 0.7071 -3.8571 34.5436)" class="st2" cx="39.8" cy="21.9" rx="0.8" ry="0.8"/>
<circle class="st3" cx="53.9" cy="16.9" r="11.3"/>
<circle class="st4" cx="63.3" cy="32.4" r="15.9"/>
<circle class="st5" cx="69.6" cy="13.1" r="13.1"/>
<circle class="st6" cx="38.6" cy="25.5" r="2"/>
<ellipse transform="matrix(0.8943 -0.4475 0.4475 0.8943 -10.319 50.4807)" class="st0" cx="101.7" cy="47.1" rx="1.2" ry="1.2"/>
<ellipse transform="matrix(0.3702 -0.9289 0.9289 0.3702 46.0283 82.2075)" class="st7" cx="83.6" cy="7.2" rx="0.7" ry="0.7"/>
<circle class="st7" cx="84.6" cy="10" r="1.5"/>
<circle class="st8" cx="49.8" cy="46.4" r="1.8"/>
<g id="Название_кривые_3_">
	<path class="st9" d="M0,87.8V62h10.7c4.7,0,7,2.1,7,6.2c0,3.6-2.5,6.1-7.6,7.6l8.7,12h-2.6l-8.6-12v-1.3c5.3-0.8,8-2.9,8-6.2
		c0-3.1-1.7-4.7-5.2-4.7H1.9v24.2H0z"/>
	<path class="st9" d="M24.8,62v2.2h-2.3V62H24.8z M24.6,68.8v19h-1.9v-19H24.6z"/>
	<path class="st9" d="M46.4,87.8c0,4.6-2.8,6.9-8.4,6.9c-2.3,0-4.4-0.3-6.2-0.9v-1.6c1.8,0.6,3.9,0.9,6.3,0.9c4.3,0,6.4-1.7,6.4-5.2
		v-0.9c-2.1,0.6-4,0.9-5.7,0.9c-6,0-9-3.2-9-9.6c0-6.3,3.2-9.4,9.7-9.4c2.4,0,4.8,0.3,6.9,0.8V87.8z M44.5,71
		c-1.7-0.3-3.5-0.4-5.2-0.4c-5.1,0-7.7,2.6-7.7,7.7c0,5.2,2.4,7.8,7.2,7.8c1.7,0,3.6-0.3,5.7-1V71z"/>
	<path class="st9" d="M52.2,87.8V62h1.9v8.9c2.2-1.4,4.5-2.1,6.8-2.1c4.6,0,6.9,2.4,6.9,7.1v11.9H66V75.1c0-3.1-1.7-4.6-5.1-4.6
		c-2.3,0-4.5,0.8-6.7,2.4v14.9H52.2z"/>
	<path class="st9" d="M73.6,65.8h1.3l0.3,3.1H81v1.6h-5.5v12c0,2.5,0.9,3.7,2.7,3.7H81v1.6h-2.7c-3.1,0-4.6-1.7-4.6-5.1V65.8z"/>
	<path class="st9" d="M92.7,68.8c5.2,0,7.8,2.9,7.8,8.6c0,0.4,0,0.8,0,1.3H86c0,5,2.6,7.5,7.9,7.5c2.2,0,4.1-0.3,5.8-0.9v1.6
		c-1.7,0.6-3.6,0.9-5.8,0.9c-6.5,0-9.8-3.2-9.8-9.7C84.1,71.9,87,68.8,92.7,68.8z M86,77h12.6c-0.1-4.4-2.1-6.6-6-6.6
		C88.4,70.4,86.2,72.6,86,77z"/>
	<path class="st9" d="M119.1,87.3c-1.6,0.4-3.3,0.5-5.1,0.5c-6.4,0-9.6-3.3-9.6-9.9c0-6.1,3.2-9.1,9.6-9.1c1.8,0,3.5,0.2,5.1,0.5V71
		c-1.7-0.4-3.3-0.5-4.9-0.5c-5.1,0-7.7,2.5-7.7,7.5c0,5.5,2.6,8.2,7.7,8.2c1.6,0,3.2-0.2,4.9-0.5V87.3z"/>
	<path class="st9" d="M123.5,87.8V62h1.9v8.9c2.2-1.4,4.5-2.1,6.8-2.1c4.6,0,6.9,2.4,6.9,7.1v11.9h-1.9V75.1c0-3.1-1.7-4.6-5.1-4.6
		c-2.3,0-4.5,0.8-6.7,2.4v14.9H123.5z"/>
</g>
</svg>
