<svg width="150" height="150" viewBox="0 0 150 150" fill="none" xmlns="http://www.w3.org/2000/svg">
<path fill-rule="evenodd" clip-rule="evenodd" d="M101.21 71.405H127.305C138.769 71.405 144.499 76.4831 144.499 86.7181C144.499 95.5466 138.3 101.797 125.911 105.472L136.985 120.936C141.118 116.823 144.398 111.921 146.632 106.515C148.866 101.109 150.01 95.3088 149.996 89.4519C149.996 65 130.325 45.1575 106.09 45.1575C81.8539 45.1575 62.1826 65 62.1826 89.4519C62.1826 112.266 79.2979 131.016 101.289 133.436L101.21 71.405Z" fill="#40C0D3"/>
<path fill-rule="evenodd" clip-rule="evenodd" d="M101.21 71.405H127.305C138.769 71.405 144.499 76.4831 144.499 86.7181C144.499 95.5466 138.3 101.797 125.911 105.472L136.985 120.936C141.118 116.823 144.398 111.921 146.632 106.515C148.866 101.109 150.01 95.3088 149.996 89.4519C149.996 65 130.325 45.1575 106.09 45.1575C81.8539 45.1575 62.1826 65 62.1826 89.4519C62.1826 112.266 79.2979 131.016 101.289 133.436L101.21 71.405Z" fill="#40C0D3"/>
<path fill-rule="evenodd" clip-rule="evenodd" d="M119.866 105.627V102.421C132.799 100.47 139.305 95.3885 139.305 87.0322C139.305 79.3757 135.048 75.5457 126.604 75.5457H105.933V133.75H106.086C116.31 133.75 125.675 130.234 133.189 124.298L119.87 105.627H119.866Z" fill="#40C0D3"/>
<path fill-rule="evenodd" clip-rule="evenodd" d="M23.074 65C29.1936 65 35.0625 67.4525 39.3897 71.8184C43.7169 76.1841 46.1481 82.1053 46.1481 88.2794C46.1481 94.4534 43.7169 100.375 39.3897 104.741C35.0625 109.106 29.1936 111.559 23.074 111.559C16.9544 111.559 11.0854 109.106 6.75822 104.741C2.431 100.375 0 94.4534 0 88.2794C0 82.1053 2.431 76.1841 6.75822 71.8184C11.0854 67.4525 16.9544 65 23.074 65Z" fill="#FFB75F"/>
<path fill-rule="evenodd" clip-rule="evenodd" d="M9.21424 62.0288C9.68683 62.0288 10.1401 62.2182 10.4742 62.5554C10.8084 62.8926 10.9961 63.3497 10.9961 63.8266C10.9961 64.3035 10.8084 64.7607 10.4742 65.0979C10.1401 65.4351 9.68683 65.6244 9.21424 65.6244C8.74211 65.6244 8.2893 65.4354 7.95546 65.0985C7.62161 64.7616 7.43408 64.3047 7.43408 63.8285C7.43408 63.3522 7.62161 62.8954 7.95546 62.5585C8.2893 62.2216 8.74211 62.0326 9.21424 62.0326" fill="#FFC96B"/>
<path fill-rule="evenodd" clip-rule="evenodd" d="M40.4291 27.4207C47.0625 27.4207 53.4241 30.0792 58.1147 34.8116C62.8053 39.5439 65.4403 45.9624 65.4403 52.6548C65.4403 59.3473 62.8053 65.7658 58.1147 70.4983C53.4241 75.2305 47.0625 77.8892 40.4291 77.8892C33.7953 77.8892 27.4337 75.2305 22.7432 70.4983C18.0526 65.7658 15.4175 59.3473 15.4175 52.6548C15.4175 45.9624 18.0526 39.5439 22.7432 34.8116C27.4337 30.0792 33.7953 27.4207 40.4291 27.4207Z" fill="#B3D446"/>
<path fill-rule="evenodd" clip-rule="evenodd" d="M61.0194 51.7169C80.4366 51.7169 96.1753 67.5997 96.1753 87.1863C96.1753 106.777 80.4366 122.656 61.0194 122.656C41.6056 122.656 25.8667 106.777 25.8667 87.1863C25.8667 67.5997 41.6056 51.7169 61.0194 51.7169Z" fill="#F16059"/>
<path fill-rule="evenodd" clip-rule="evenodd" d="M74.9602 15C82.5999 15 89.9271 18.0619 95.329 23.5122C100.731 28.9625 103.766 36.3547 103.766 44.0625C103.766 51.7703 100.731 59.1625 95.329 64.6128C89.9271 70.0631 82.5999 73.125 74.9602 73.125C67.3205 73.125 59.9937 70.0631 54.5915 64.6128C49.1893 59.1625 46.1543 51.7703 46.1543 44.0625C46.1543 36.3547 49.1893 28.9625 54.5915 23.5122C59.9937 18.0619 67.3205 15 74.9602 15Z" fill="#FCD035"/>
<path fill-rule="evenodd" clip-rule="evenodd" d="M6.66931 67.42C7.81978 67.42 8.9231 67.8813 9.7366 68.7019C10.5501 69.5225 11.0071 70.636 11.0071 71.7966C11.0071 72.9572 10.5501 74.0704 9.7366 74.891C8.9231 75.7119 7.81978 76.1729 6.66931 76.1729C5.51888 76.1729 4.41553 75.7119 3.60206 74.891C2.78856 74.0704 2.33154 72.9572 2.33154 71.7966C2.33154 70.636 2.78856 69.5225 3.60206 68.7019C4.41553 67.8813 5.51888 67.42 6.66931 67.42Z" fill="#FFC96B"/>
<path fill-rule="evenodd" clip-rule="evenodd" d="M145.88 117.189C146.578 117.189 147.247 117.468 147.74 117.966C148.234 118.464 148.511 119.139 148.511 119.843C148.511 120.547 148.234 121.222 147.74 121.72C147.247 122.217 146.578 122.497 145.88 122.497C145.182 122.497 144.513 122.217 144.02 121.72C143.526 121.222 143.249 120.547 143.249 119.843C143.249 119.139 143.526 118.464 144.02 117.966C144.513 117.468 145.182 117.189 145.88 117.189Z" fill="#40C0D3"/>
<path fill-rule="evenodd" clip-rule="evenodd" d="M106.082 29.2963C106.296 29.2963 106.507 29.3387 106.704 29.4212C106.902 29.5036 107.081 29.6245 107.232 29.7769C107.383 29.9293 107.503 30.1101 107.585 30.3092C107.666 30.5083 107.708 30.7217 107.708 30.9372C107.708 31.1527 107.666 31.3661 107.585 31.5651C107.503 31.7642 107.383 31.9451 107.232 32.0975C107.081 32.2499 106.902 32.3708 106.704 32.4532C106.507 32.5357 106.296 32.5781 106.082 32.5781C105.651 32.5781 105.237 32.4052 104.932 32.0975C104.627 31.7898 104.456 31.3724 104.456 30.9372C104.456 30.502 104.627 30.0846 104.932 29.7769C105.237 29.4691 105.651 29.2963 106.082 29.2963ZM108.094 33.9053C108.998 33.9053 109.864 34.2674 110.503 34.912C111.142 35.5565 111.501 36.4307 111.501 37.3422C111.501 38.2538 111.142 39.128 110.503 39.7725C109.864 40.4171 108.998 40.7792 108.094 40.7792C107.191 40.7792 106.325 40.4171 105.686 39.7725C105.047 39.128 104.688 38.2538 104.688 37.3422C104.688 36.4307 105.047 35.5565 105.686 34.912C106.325 34.2674 107.191 33.9053 108.094 33.9053Z" fill="#F5D876"/>
<path fill-rule="evenodd" clip-rule="evenodd" d="M31.4403 114.376C32.4878 114.376 33.4925 114.796 34.2331 115.543C34.974 116.29 35.39 117.304 35.39 118.361C35.39 119.418 34.974 120.432 34.2331 121.179C33.4925 121.926 32.4878 122.346 31.4403 122.346C30.3925 122.346 29.3879 121.926 28.6471 121.179C27.9064 120.432 27.4902 119.418 27.4902 118.361C27.4902 117.304 27.9064 116.29 28.6471 115.543C29.3879 114.796 30.3925 114.376 31.4403 114.376Z" fill="#F16059"/>
</svg>
